<?xml version="1.0" encoding="UTF-8" standalone="no"?>
<!-- Generator: Adobe Illustrator 22.0.1, SVG Export Plug-In . SVG Version: 6.00 Build 0)  -->

<svg
   xmlns:dc="http://purl.org/dc/elements/1.1/"
   xmlns:cc="http://creativecommons.org/ns#"
   xmlns:rdf="http://www.w3.org/1999/02/22-rdf-syntax-ns#"
   xmlns:svg="http://www.w3.org/2000/svg"
   xmlns="http://www.w3.org/2000/svg"
   xmlns:sodipodi="http://sodipodi.sourceforge.net/DTD/sodipodi-0.dtd"
   xmlns:inkscape="http://www.inkscape.org/namespaces/inkscape"
   version="1.1"
   id="Layer_1"
   x="0px"
   y="0px"
   viewBox="0 0 735 852"
   style="enable-background:new 0 0 735 852;"
   xml:space="preserve"
   sodipodi:docname="logo.svg"
   inkscape:version="0.92.3 (2405546, 2018-03-11)"><metadata
   id="metadata971"><rdf:RDF><cc:Work
       rdf:about=""><dc:format>image/svg+xml</dc:format><dc:type
         rdf:resource="http://purl.org/dc/dcmitype/StillImage" /></cc:Work></rdf:RDF></metadata><defs
   id="defs969" /><sodipodi:namedview
   pagecolor="#ffffff"
   bordercolor="#666666"
   borderopacity="1"
   objecttolerance="10"
   gridtolerance="10"
   guidetolerance="10"
   inkscape:pageopacity="0"
   inkscape:pageshadow="2"
   inkscape:window-width="2880"
   inkscape:window-height="1526"
   id="namedview967"
   showgrid="false"
   inkscape:lockguides="true"
   inkscape:zoom="1.102987"
   inkscape:cx="185.24914"
   inkscape:cy="360.63244"
   inkscape:window-x="3829"
   inkscape:window-y="244"
   inkscape:window-maximized="1"
   inkscape:current-layer="Layer_1" />
<style
   type="text/css"
   id="style894">
	.st0{fill:#144F85;}
	.st1{fill:#173E6C;}
	.st2{fill:#E6B35A;}
	.st3{fill:#FFFFFF;}
	.st4{fill:#FFFFFF;}
</style>
<path
   class="st0"
   d="M18.2,626.4V223.1l51.6-29.8L367.5,21.5l0,0l296.7,171.3l52.6,30.3v403.3L367.5,828L18.2,626.4z"
   id="path896"
   style="fill:#f5f6f8;fill-opacity:1"
   inkscape:export-xdpi="255.3701"
   inkscape:export-ydpi="255.3701" />
<title
   id="title898">feather</title>
<path
   class="st1"
   d="M705.6,196.2L427.8,35.8L367.5,1l-60.3,34.8L29.4,196.2L0.1,213.1v424.2l29.3,16.9l281.3,162.4l56.9,32.8  l56.9-32.8l281.3-162.4l29.3-16.9V213.1L705.6,196.2z M705.6,621.5L367.5,816.7L29.4,621.5V231L367.5,35.8l0,0L705.6,231V621.5z"
   id="path900"
   style="fill:#20232a;fill-opacity:1"
   inkscape:export-xdpi="255.3701"
   inkscape:export-ydpi="255.3701" />
<path
   class="st2"
   d="M367,633.9c0.3-0.3,0.6-0.6,0.9-0.9h-0.3C367.5,633.3,367.3,633.6,367,633.9z"
   id="path902"
   inkscape:export-xdpi="255.3701"
   inkscape:export-ydpi="255.3701" />































<g
   id="g1791"
   transform="translate(69.797968,18.671557)"
   inkscape:export-xdpi="255.3701"
   inkscape:export-ydpi="255.3701"><path
     style="fill:#fcfdfe;stroke-width:0.8446039"
     d="m 872.72725,541.13671 c -1.45292,-1.40214 -1.45292,-30.62475 0,-32.02689 1.4645,-1.41332 40.31996,-1.41332 41.78447,0 1.45292,1.40214 1.45292,30.62475 0,32.02689 -1.46451,1.41332 -40.31997,1.41332 -41.78447,0 z m 35.44679,-6.11616 c 1.73762,-1.67688 1.73762,-5.672 0,-7.34888 -0.74308,-0.71711 -2.45646,-1.30384 -3.80752,-1.30384 -1.35106,0 -3.06444,0.58673 -3.80752,1.30384 -1.73762,1.67688 -1.73762,5.672 0,7.34888 0.74308,0.7171 2.45646,1.30383 3.80752,1.30383 1.35106,0 3.06444,-0.58673 3.80752,-1.30383 z"
     id="path1799"
     inkscape:connector-curvature="0" /></g><g
   id="g1727"
   transform="matrix(6.6239371,0,0,6.6239371,-5144.3191,-3111.4369)"
   inkscape:export-xdpi="255.3701"
   inkscape:export-ydpi="255.3701"><path
     style="fill:#fefefe;fill-opacity:0.01167315;stroke-width:0.8446039"
     d="M 804.61401,524.08579 V 497.535 h 27.51241 27.51242 v 26.55079 26.55079 h -27.51242 -27.51241 z"
     id="path1743"
     inkscape:connector-curvature="0" /><path
     style="fill:#61dafb;fill-opacity:1;stroke-width:0.8446039"
     d="m 805.00871,549.60271 c -0.23129,-0.58166 -0.31799,-12.4415 -0.19267,-26.35521 l 0.22785,-25.29764 h 27.08253 27.08253 v 26.13593 26.13593 l -26.88986,0.21928 c -21.16222,0.17257 -26.97943,-0.006 -27.31038,-0.83829 z m 50.12123,-3.48704 c 1.45572,-1.40484 1.31406,-34.23639 -0.14166,-35.64123 -1.46625,-1.415 -43.42603,-0.65003 -44.89228,0.76497 -1.45572,1.40484 -1.37073,33.30142 0.085,34.70626 1.46625,1.415 43.4827,1.585 44.94895,0.17 z m -15.56228,-7.78268 c -3.08461,-3.28932 -0.71381,-8.43922 3.88507,-8.43922 4.4031,0 6.69918,5.73426 3.4369,8.58339 -2.07647,1.81349 -5.55028,1.7451 -7.32197,-0.14417 z"
     id="path1741"
     inkscape:connector-curvature="0"
     sodipodi:nodetypes="sscccccssssssssscss" /><path
     style="fill:#3d8bd9;stroke-width:0.8446039"
     d="m 805.64573,549.64092 c -1.4737,-1.42219 -1.4737,-49.68808 0,-51.11027 1.47369,-1.42218 51.48769,-1.42218 52.96139,0 1.4737,1.42219 1.4737,49.68808 0,51.11027 -1.4737,1.42219 -51.4877,1.42219 -52.96139,0 z m 49.26441,-20.99171 V 511.22525 H 832.5563 810.20247 l -0.23375,16.57084 c -0.12857,9.11396 -0.0415,17.0544 0.19354,17.64543 0.33769,0.84924 5.07457,1.02815 22.58759,0.85312 l 22.16029,-0.22148 z"
     id="path1731"
     inkscape:connector-curvature="0" /><path
     style="fill:#1875d1;stroke-width:0.8446039"
     d="m 805.14344,549.89938 c -1.16581,-1.12506 -0.52943,-5.1534 -0.52943,-25.81359 0,-20.66019 -0.73593,-25.01087 0.42988,-26.13593 1.1658,-1.12506 5.67406,-0.41486 27.08253,-0.41486 21.40847,0 25.84551,-0.69953 27.01132,0.42553 1.16581,1.12506 0.5011,5.46507 0.5011,26.12526 0,20.66019 0.63638,24.97185 -0.52943,26.09691 -1.16581,1.12506 -5.57452,0.45388 -26.98299,0.45388 -21.40847,0 -25.81718,0.38786 -26.98298,-0.7372 z m 49.7667,-21.25017 V 511.22525 H 832.5563 810.20247 l -0.23375,16.57084 c -0.12857,9.11396 -0.0415,17.0544 0.19354,17.64543 0.33769,0.84924 5.07457,1.02815 22.58759,0.85312 l 22.16029,-0.22148 z"
     id="path1729"
     inkscape:connector-curvature="0"
     sodipodi:nodetypes="cscssssscccccscscc" /></g><g
   id="g1717"
   transform="translate(1.9232506,-74.365688)"
   inkscape:export-xdpi="255.3701"
   inkscape:export-ydpi="255.3701" /><path
   style="fill:#000000;stroke-width:0.8446039"
   d=""
   id="path1715"
   inkscape:connector-curvature="0"
   inkscape:export-xdpi="255.3701"
   inkscape:export-ydpi="255.3701" /><flowRoot
   xml:space="preserve"
   id="flowRoot1805"
   style="fill:black;fill-opacity:1;stroke:none;font-family:sans-serif;font-style:normal;font-weight:normal;font-size:40px;line-height:1.25;letter-spacing:0px;word-spacing:0px"
   inkscape:export-xdpi="255.3701"
   inkscape:export-ydpi="255.3701"><flowRegion
     id="flowRegion1807"><rect
       id="rect1809"
       width="590.21552"
       height="115.14188"
       x="77.063469"
       y="495.69479" /></flowRegion><flowPara
     id="flowPara1811" /></flowRoot><flowRoot
   xml:space="preserve"
   id="flowRoot1813"
   style="font-style:normal;font-weight:normal;font-size:40px;line-height:1.25;font-family:sans-serif;letter-spacing:0px;word-spacing:0px;fill:#000000;fill-opacity:1;stroke:none"
   inkscape:export-xdpi="255.3701"
   inkscape:export-ydpi="255.3701"><flowRegion
     id="flowRegion1815"><rect
       id="rect1817"
       width="172.25951"
       height="49.864597"
       x="83.409866"
       y="516.54724" /></flowRegion><flowPara
     id="flowPara1819">fullercalendar</flowPara></flowRoot><text
   xml:space="preserve"
   style="font-style:normal;font-variant:normal;font-weight:normal;font-stretch:normal;font-size:73.88335419px;line-height:1.25;font-family:Muli;-inkscape-font-specification:'Muli, Normal';font-variant-ligatures:normal;font-variant-caps:normal;font-variant-numeric:normal;font-feature-settings:normal;text-align:start;letter-spacing:0px;word-spacing:0px;writing-mode:lr-tb;text-anchor:start;fill:#1875d1;fill-opacity:1;stroke:none;stroke-width:1.84709167;stroke-opacity:1;"
   x="91.52565"
   y="637.12781"
   id="text1823"
   inkscape:export-xdpi="255.3701"
   inkscape:export-ydpi="255.3701"><tspan
     sodipodi:role="line"
     id="tspan1821"
     x="91.52565"
     y="637.12781"
     style="font-style:normal;font-variant:normal;font-weight:bold;font-stretch:normal;font-size:83.86306763px;font-family:Muli;-inkscape-font-specification:'Muli, Bold';font-variant-ligatures:normal;font-variant-caps:normal;font-variant-numeric:normal;font-feature-settings:normal;text-align:start;writing-mode:lr-tb;text-anchor:start;fill:#1875d1;fill-opacity:1;stroke-width:1.84709167;">fullercalendar</tspan></text>


</svg>